<svg width="44" height="29" viewBox="0 0 44 29" fill="none" xmlns="http://www.w3.org/2000/svg">
<path d="M22.9525 10.5678C22.9525 8.65631 23.4156 6.89501 24.342 5.2839C25.2956 3.64548 26.5762 2.36205 28.1837 1.43361C29.7912 0.477871 31.5486 0 33.4558 0C35.363 0 37.1204 0.477871 38.7279 1.43361C40.3354 2.36205 41.616 3.64548 42.5696 5.2839C43.5232 6.89501 44 8.65631 44 10.5678C44 12.4793 43.5232 14.2542 42.5696 15.8927C41.616 17.5038 40.3354 18.7872 38.7279 19.7429C37.1204 20.6714 35.363 21.1356 33.4558 21.1356C31.4668 21.1356 29.7503 20.6168 28.3063 19.5791V29H22.9525V10.5678ZM33.4967 15.9336C34.9952 15.9336 36.2349 15.4284 37.2157 14.4181C38.1966 13.3804 38.687 12.097 38.687 10.5678C38.687 9.03861 38.1966 7.76883 37.2157 6.75847C36.2349 5.72081 34.9952 5.20198 33.4967 5.20198C31.9981 5.20198 30.7448 5.72081 29.7367 6.75847C28.7286 7.76883 28.2246 9.03861 28.2246 10.5678C28.2246 12.097 28.7286 13.3804 29.7367 14.4181C30.7448 15.4284 31.9981 15.9336 33.4967 15.9336Z" fill="#E7C2B5"/>
<path d="M10.5442 21.1356C8.63698 21.1356 6.87962 20.6714 5.2721 19.7429C3.66459 18.7872 2.38403 17.5038 1.43042 15.8927C0.476807 14.2542 0 12.4793 0 10.5678C0 8.65631 0.476807 6.89501 1.43042 5.2839C2.38403 3.64548 3.66459 2.36205 5.2721 1.43361C6.87962 0.477871 8.63698 0 10.5442 0C12.4514 0 14.2088 0.477871 15.8163 1.43361C17.4238 2.36205 18.6908 3.64548 19.6171 5.2839C20.5707 6.89501 21.0475 8.65631 21.0475 10.5678V20.8079H15.7346V18.637C15.4349 19.3197 14.781 19.9068 13.7729 20.3983C12.7648 20.8898 11.6885 21.1356 10.5442 21.1356ZM10.5851 15.9336C12.0836 15.9336 13.3233 15.4284 14.3042 14.4181C15.285 13.3804 15.7754 12.097 15.7754 10.5678C15.7754 9.03861 15.285 7.76883 14.3042 6.75847C13.3233 5.72081 12.0836 5.20198 10.5851 5.20198C9.08654 5.20198 7.83323 5.72081 6.82512 6.75847C5.81702 7.76883 5.31297 9.03861 5.31297 10.5678C5.31297 12.097 5.81702 13.3804 6.82512 14.4181C7.83323 15.4284 9.08654 15.9336 10.5851 15.9336Z" fill="#E7C2B5"/>
</svg>
